<svg xmlns="http://www.w3.org/2000/svg" viewBox="0 0 512 512"><path d="m136.11 492.81c-2.2079-1.4876-2.6949-2.9756-2.7773-8.4875-0.0539-3.6037 0.14828-4.3956 1.5464-6.0571l1.6083-1.9114h239.13l1.502 1.6207c1.3431 1.4492 1.5 2.1688 1.4828 6.8015-0.0208 5.5847-0.99451 7.8143-3.8022 8.7053-0.74079 0.23511-54.33 0.46129-119.09 0.50264-117 0.0747-117.75 0.0673-119.6-1.1743zm4.5495-29.19c-3.3536-1.8228-3.8721-3.528-4.3444-14.291-0.23995-5.4668-0.75168-16.23-1.1372-23.918-1.4313-28.546-1.9008-38.584-2.5133-53.737-0.34524-8.5421-0.96844-20.982-1.3849-27.646-0.41646-6.6627-0.71184-13.289-0.65638-14.726 0.1245-3.2254 1.5242-6.0388 3.7201-7.4779 1.5745-1.0318 8.3137-1.104 120.35-1.2882 81.432-0.13384 119.38 9e-3 120.9 0.45546 2.9303 0.86213 4.9852 3.1527 5.5375 6.1723 0.24744 1.3532 0.22881 6.6097-0.0414 11.681-0.82824 15.543-2.6963 55.875-3.6639 79.111-1.1943 28.674-1.963 40.042-2.846 42.093-0.47903 1.1128-1.7832 2.5795-2.8981 3.2593-2.0044 1.2221-3.3019 1.2357-115.71 1.2134-96.883-0.0192-113.93-0.15268-115.31-0.90274zm105.55-39.575c0.41001-0.41001 0.74548-1.5282 0.74548-2.485 0-1.3253 0.29584-1.7395 1.2425-1.7395 1.0058 0 1.2425 0.41417 1.2425 2.1743 0 2.0017 0.14792 2.1743 1.8637 2.1743 1.0251 0 2.0734 0.0106 2.3296 0.0245 0.25626 0.0141 0.60572-0.89511 0.77655-2.019 0.23231-1.5283 0.663-2.0935 1.7084-2.2419 1.2256-0.17399 1.3978 0.0747 1.3978 2.019 0 2.1671 0.0557 2.2176 2.4457 2.2176 2.3052 0 2.4568-0.11605 2.6403-2.019 0.1481-1.5364 0.49024-2.019 1.431-2.019 0.88786 0 1.3274 0.52536 1.5592 1.8637 0.2573 1.4854 0.63685 1.8637 1.8698 1.8637 1.5028 0 1.5559-0.15092 1.8577-5.2805l0.31063-5.2805 3.8689-0.3106c3.0918-0.24823 4.1931-0.63481 5.4824-1.9242 2.0419-2.0422 2.6471-5.8574 1.3326-8.3996-0.70755-1.3683-0.77869-2.1271-0.28255-3.0136 3.2182-5.7507 3.8841-14.113 1.6502-20.727-3.1466-9.3176-11.385-16.372-21.239-18.188-10.422-1.9204-21.762 3.4112-27.63 12.991-2.0706 3.3804-3.8733 9.7126-3.8733 13.605 0 3.4211 1.3259 9.0727 2.8158 12.002 0.65495 1.2879 0.64504 1.8402-0.0556 3.1062-1.7339 3.1321-0.62322 7.499 2.4133 9.4886 0.83019 0.54398 3.0111 1.0747 4.8463 1.1794l3.3369 0.19037 0.16765 4.9699c0.0921 2.7334 0.29304 5.3194 0.44643 5.7465 0.35459 0.98742 2.3249 1.006 3.2998 0.031zm6.6916-10.171c-1.36-1.36-1.2938-7.3922 0.11183-10.206 1.3946-2.7917 4.0396-3.0314 5.9034-0.5352 1.7786 2.3823 1.9043 9.5812 0.18934 10.836-1.604 1.1731-4.9886 1.1217-6.2047-0.0942zm-12.284-9.1882c-7.9182-3.5142-7.6486-13.805 0.44261-16.895 2.6389-1.0078 2.9412-1.007 5.6183 0.0159 4.1445 1.5828 6.1163 4.7848 5.74 9.3217-0.32605 3.9318-1.4767 5.5477-5.1525 7.2356-2.8438 1.3059-4.2761 1.3754-6.6483 0.32255zm23.798-0.5317c-8.3723-4.4435-5.5091-16.685 3.9504-16.89 6.5622-0.14211 11.286 7.9949 7.6873 13.241-3.2089 4.6769-7.2904 5.9569-11.638 3.6495zm-147.65 16.73c-3.0955-4.173-11.728-15.664-19.184-25.536-14.176-18.769-17.082-23.604-18.378-30.574-1.3085-7.0352-1.3729-7.8229-0.74768-9.1547 0.34623-0.73756 0.90082-3.298 1.2324-5.6898 0.3316-2.3918 1.7376-9.6603 3.1245-16.152 3.3552-15.706 9.6638-45.434 12.26-57.775 2.4499-11.644 3.0437-13.449 6.8005-20.667 3.456-6.6402 7.9934-12.313 13.648-17.062 7.1393-5.9962 13.49-9.2558 26.131-13.412 7.9992-2.6302 26.292-9.1237 29.067-10.318l2.3539-1.013-1.6159-2.6218c-3.7187-6.0334-9.5756-18.978-12.306-27.197-7.4512-22.432-6.5393-44.338 2.9532-70.954 4.8283-13.538 7.9844-20.649 13.81-31.115 8.3915-15.076 16.754-26.355 27.503-37.095 12.962-12.951 25.402-20.655 38.564-23.879 3.5877-0.87922 7.5191-1.8947 8.7363-2.2567 5.5287-1.644 22.19 1.8563 31.888 6.6994 21.461 10.716 42.239 33.686 56.875 62.873 13.772 27.465 20.458 54.808 18.096 74.02-1.9375 15.765-5.2911 26.225-13.76 42.916-2.3657 4.6624-4.3014 8.6278-4.3014 8.812s0.90857 0.66423 2.019 1.0668c3.3332 1.2085 28.384 9.9301 33.392 11.626 16.517 5.5922 28.785 15.803 36.016 29.976 3.2075 6.2873 4.7741 12.202 9.6344 36.375 0.48089 2.3918 1.4589 7.0046 2.1734 10.25 0.71445 3.246 1.8376 8.5576 2.4959 11.804 0.65825 3.246 1.7774 8.5576 2.4871 11.804 1.6382 7.4938 3.4174 16.025 4.3402 20.812 0.39522 2.0502 0.97813 4.2128 1.2954 4.8061 0.72641 1.3586 0.76158 10.227 0.0423 10.671-0.29396 0.18168-0.70685 1.5879-0.91751 3.1249-0.78691 5.741-3.7291 10.37-22.159 34.859-22.136 29.414-20.674 27.533-21.43 27.576-0.40401 0.0225-0.4814-2.9523-0.2213-8.5078 0.21996-4.6983 0.57931-13.295 0.79854-19.103 0.21925-5.8087 0.51869-11.539 0.66543-12.735 0.14669-1.1959 0.41727-5.8087 0.60115-10.25 0.18389-4.4418 0.63079-14.226 0.9931-21.743 0.36234-7.517 0.71092-17.86 0.77465-22.986 0.1127-9.066 0.0687-9.4148-1.6274-12.869-2.1382-4.3544-6.2582-8.0983-10.769-9.7859-3.3521-1.2542-4.2373-1.2632-124.11-1.2632-102.75 0-121.1 0.13155-123.23 0.8829-6.145 2.1681-10.985 7.2027-12.79 13.303-0.83732 2.8304-0.89686 4.9628-0.40755 14.599 0.31517 6.2065 0.73878 15.618 0.94136 20.914 0.20259 5.2959 0.62571 14.242 0.94026 19.88 0.31453 5.6378 0.86746 17.938 1.2287 27.334 0.36125 9.3964 0.75619 18.272 0.87766 19.725 0.14088 1.6837-0.0329 2.632-0.47938 2.6174-0.38513-0.0123-3.233-3.4371-6.3285-7.6102zm149.58-184.75c3.5019-1.5716 11.723-7.1782 19.626-13.385 10.485-8.235 21.944-23.923 26.857-36.771 4.6746-12.223 7.7304-28.94 5.2904-28.94-0.49235 0-1.0429 0.23898-1.2234 0.53108-0.18052 0.29208-2.3636 1.2578-4.8512 2.146-16.502 5.8916-34.6 2.6183-46.295-8.373-3.6377-3.4192-6.53-4.8651-9.7308-4.8651-3.3093 0-5.0727 0.91991-10.22 5.3316-8.8767 7.6072-16.972 10.502-29.289 10.472-8.4109-0.0205-12.956-0.91039-19.385-3.796-1.9945-0.89505-3.7886-1.4649-3.9872-1.2664-0.58367 0.58368 1.5602 14.057 3.1418 19.744 5.0629 18.207 15.527 34.096 30.481 46.286 4.293 3.4996 15.073 11.056 17.705 12.412 6.2385 3.2119 15.341 3.4095 21.88 0.47473zm-36.021-89.913c1.8675-0.94492 4.5886-2.8761 6.0469-4.2914l2.6514-2.5733-2.8905-2.6168c-6.9498-6.292-13.275-7.5737-20.257-4.1045-4.3786 2.1757-8.9244 5.9772-8.537 7.1393 0.49718 1.4915 6.0397 5.5899 9.564 7.0722 4.6485 1.9549 8.6948 1.7665 13.422-0.62507zm65.687 0.21496c1.9649-1.0472 4.6598-3.0294 5.9888-4.4048l2.4163-2.5006-3.3792-3.0495c-8.071-7.2837-16.79-7.2442-25.58 0.11568-3.5771 2.9949-3.4803 3.4799 1.4381 7.2016 6.7254 5.0891 12.915 5.9432 19.116 2.6376z"/></svg>
