<svg width="1440" height="4102" fill="none" version="1.1" viewBox="0 0 1440 4102" xmlns="http://www.w3.org/2000/svg">
 <g clip-rule="evenodd" fill-rule="evenodd">
  <path d="m118.4 1170c106.3 0 192.5-86.19 192.5-192.5 0-106.3-86.19-192.5-192.5-192.5-106.3 0-192.5 86.19-192.5 192.5 0 106.3 86.19 192.5 192.5 192.5z" fill="url(#paint0_linear)"/>
  <path d="m1014 154.4c18.22 0 33-14.78 33-33s-14.78-33-33-33c-18.23 0-33 14.78-33 33s14.78 33 33 33z" fill="url(#paint1_linear)"/>
  <path d="m1318 404.6c44.46 0 80.5-36.04 80.5-80.5 0-44.46-36.04-80.5-80.5-80.5s-80.5 36.04-80.5 80.5c0 44.46 36.04 80.5 80.5 80.5z" fill="url(#paint2_linear)"/>
  <path d="m402.4 1414c33.14 0 60-26.86 60-60s-26.86-60-60-60-60 26.86-60 60 26.86 60 60 60z" fill="url(#paint3_linear)"/>
  <path d="m402.4 3166c67.1 0 121.5-54.4 121.5-121.5s-54.4-121.5-121.5-121.5-121.5 54.4-121.5 121.5 54.4 121.5 121.5 121.5z" fill="url(#paint4_linear)"/>
  <path d="m87.56 2682c78.7 0 142.5-63.8 142.5-142.5s-63.8-142.5-142.5-142.5c-78.7 0-142.5 63.8-142.5 142.5s63.8 142.5 142.5 142.5z" fill="url(#paint5_linear)"/>
  <path d="m1228 2021c52.19 0 94.5-42.31 94.5-94.5s-42.31-94.5-94.5-94.5-94.5 42.31-94.5 94.5 42.31 94.5 94.5 94.5z" fill="url(#paint6_linear)"/>
  <path d="m402.4 0c167.6 216.7 537.3 367.4 711.5 495.7 344.4 154.1 469.4 266.5 469.4 644.3 0 214.9-286.6 398.3-331.2 432.6-478.1 367.3-385.2 487.5-161.4 669.1 223.8 181.5 510.5 529.5 420.4 934.3-115.4 518.6-368.2 445.4-688.2 484-624.4 74.7-513.5 263-420.5 441.9h-402.4c-86.81-116.4-162.4-539.9 226.4-693.4 388.8-153.5 695.4-207.9 772.8-390.4 73.27-172.8 25.84-513.8-203.2-623-229.1-109.2-666.7-228.4-666.7-551.9 0-323.5 823.9-385.8 957.7-570.3 133.9-184.5 6.145-199-216.8-378.7-223-179.7-264.1-161-591.8-354.2-278.4-186.3-278.4-315.6-278.4-540.1z" fill="url(#paint17_linear)"/>
 </g>
 <defs>
  <linearGradient id="paint0_linear" x1="1278" x2="1278" y1="1048" y2="1419" gradientTransform="translate(-1358 -249.5)" gradientUnits="userSpaceOnUse">
   <stop stop-color="#C8DCFE" offset="0"/>
   <stop stop-color="#B0B6FF" offset="1"/>
  </linearGradient>
  <linearGradient id="paint1_linear" x1="175" x2="175" y1="197.4" y2="261" gradientTransform="translate(804.8 -106.6)" gradientUnits="userSpaceOnUse">
   <stop stop-color="#C8DCFE" offset="0"/>
   <stop stop-color="#B0B6FF" offset="1"/>
  </linearGradient>
  <linearGradient id="paint2_linear" x1="1236" x2="1236" y1=".9828" y2="160" gradientTransform="translate(2.185 243.6)" gradientUnits="userSpaceOnUse">
   <stop stop-color="#00EFD1" offset="0"/>
   <stop stop-color="#00ACEA" offset="1"/>
  </linearGradient>
  <linearGradient id="paint3_linear" x1="122.7" x2="122.7" y1="974.7" y2="1093" gradientTransform="translate(220.4 319.7)" gradientUnits="userSpaceOnUse">
   <stop stop-color="#00EFD1" offset="0"/>
   <stop stop-color="#00ACEA" offset="1"/>
  </linearGradient>
  <linearGradient id="paint4_linear" x1="1309" x2="1309" y1="1781" y2="2015" gradientTransform="translate(-1032 1151)" gradientUnits="userSpaceOnUse">
   <stop stop-color="#C8DCFE" offset="0"/>
   <stop stop-color="#B0B6FF" offset="1"/>
  </linearGradient>
  <linearGradient id="paint5_linear" x1="-126.3" x2="-126.3" y1="2647" y2="2928" gradientTransform="translate(73.06 -248.1)" gradientUnits="userSpaceOnUse">
   <stop stop-color="#00EFD1" offset="0"/>
   <stop stop-color="#00ACEA" offset="1"/>
  </linearGradient>
  <linearGradient id="paint6_linear" x1="1251" x2="1251" y1="3621" y2="3808" gradientTransform="translate(-116.7 -1788)" gradientUnits="userSpaceOnUse">
   <stop stop-color="#00EFD1" offset="0"/>
   <stop stop-color="#00ACEA" offset="1"/>
  </linearGradient>
  <linearGradient id="paint17_linear" x1="-88.39" x2="-88.39" y1="508.9" y2="5689" gradientTransform="matrix(-1 0 0 1 1591 -443.7)" gradientUnits="userSpaceOnUse">
   <stop stop-color="#C8DCFE" offset="0"/>
   <stop stop-color="#B0B6FF" offset="1"/>
  </linearGradient>
 </defs>
</svg>
