<svg width="1920" height="4e3" fill="none" version="1.1" viewBox="0 0 1920 4e3" xmlns="http://www.w3.org/2000/svg">
 <g clip-rule="evenodd" fill-rule="evenodd">
  <path d="m373.6 952.6c106.3 0 192.5-86.19 192.5-192.5 0-106.3-86.19-192.5-192.5-192.5-106.3 0-192.5 86.19-192.5 192.5 0 106.3 86.19 192.5 192.5 192.5z" fill="url(#paint0_linear)"/>
  <path d="m1335 386c18.22 0 33-14.78 33-33s-14.78-33-33-33c-18.23 0-33 14.78-33 33s14.78 33 33 33z" fill="url(#paint1_linear)"/>
  <path d="m1635 631.4c44.46 0 80.5-36.04 80.5-80.5s-36.04-80.5-80.5-80.5-80.5 36.04-80.5 80.5 36.04 80.5 80.5 80.5z" fill="url(#paint2_linear)"/>
  <path d="m719 1641c33.14 0 60-26.86 60-60s-26.86-60-60-60-60 26.86-60 60 26.86 60 60 60z" fill="url(#paint3_linear)"/>
  <path d="m1229 3549c67.1 0 121.5-54.4 121.5-121.5s-54.4-121.5-121.5-121.5-121.5 54.4-121.5 121.5 54.4 121.5 121.5 121.5z" fill="url(#paint4_linear)"/>
  <path d="m404.2 2909c78.7 0 142.5-63.8 142.5-142.5s-63.8-142.5-142.5-142.5-142.5 63.8-142.5 142.5 63.8 142.5 142.5 142.5z" fill="url(#paint5_linear)"/>
  <path d="m1540 2276c52.19 0 94.5-42.31 94.5-94.5s-42.31-94.5-94.5-94.5-94.5 42.31-94.5 94.5 42.31 94.5 94.5 94.5z" fill="url(#paint6_linear)"/>
 </g>
 <defs>
  <linearGradient id="paint0_linear" x1="1278" x2="1278" y1="1048" y2="1419" gradientTransform="translate(-1103 -466.9)" gradientUnits="userSpaceOnUse">
   <stop stop-color="#C8DCFE" offset="0"/>
   <stop stop-color="#B0B6FF" offset="1"/>
  </linearGradient>
  <linearGradient id="paint1_linear" x1="175" x2="175" y1="197.4" y2="261" gradientTransform="translate(1126 125)" gradientUnits="userSpaceOnUse">
   <stop stop-color="#C8DCFE" offset="0"/>
   <stop stop-color="#B0B6FF" offset="1"/>
  </linearGradient>
  <linearGradient id="paint2_linear" x1="1236" x2="1236" y1=".9828" y2="160" gradientTransform="translate(318.8 470.4)" gradientUnits="userSpaceOnUse">
   <stop stop-color="#00EFD1" offset="0"/>
   <stop stop-color="#00ACEA" offset="1"/>
  </linearGradient>
  <linearGradient id="paint3_linear" x1="122.7" x2="122.7" y1="974.7" y2="1093" gradientTransform="translate(537 546.5)" gradientUnits="userSpaceOnUse">
   <stop stop-color="#00EFD1" offset="0"/>
   <stop stop-color="#00ACEA" offset="1"/>
  </linearGradient>
  <linearGradient id="paint4_linear" x1="1309" x2="1309" y1="1781" y2="2015" gradientTransform="translate(-205 1534)" gradientUnits="userSpaceOnUse">
   <stop stop-color="#C8DCFE" offset="0"/>
   <stop stop-color="#B0B6FF" offset="1"/>
  </linearGradient>
  <linearGradient id="paint5_linear" x1="-126.3" x2="-126.3" y1="2647" y2="2928" gradientTransform="translate(389.7 -21.26)" gradientUnits="userSpaceOnUse">
   <stop stop-color="#00EFD1" offset="0"/>
   <stop stop-color="#00ACEA" offset="1"/>
  </linearGradient>
  <linearGradient id="paint6_linear" x1="1251" x2="1251" y1="3621" y2="3808" gradientTransform="translate(195.2 -1533)" gradientUnits="userSpaceOnUse">
   <stop stop-color="#00EFD1" offset="0"/>
   <stop stop-color="#00ACEA" offset="1"/>
  </linearGradient>
 </defs>
</svg>
